<svg width="415" height="62" viewBox="0 0 415 62" fill="none" xmlns="http://www.w3.org/2000/svg">
<g filter="url(#filter0_d_175_455)">
<path d="M38.9883 38.9902C38.9883 40.4388 38.7116 41.806 38.1582 43.0918C37.6211 44.3613 36.8724 45.4762 35.9121 46.4365C34.9681 47.3805 33.8532 48.1292 32.5674 48.6826C31.2979 49.2197 29.9388 49.4883 28.4902 49.4883C27.1882 49.4883 25.9349 49.2604 24.7305 48.8047C23.5423 48.349 22.4681 47.6816 21.5078 46.8027C20.5475 47.6816 19.4652 48.349 18.2607 48.8047C17.0563 49.2604 15.8031 49.4883 14.501 49.4883C13.0524 49.4883 11.6852 49.2197 10.3994 48.6826C9.12988 48.1292 8.01497 47.3805 7.05469 46.4365C6.11068 45.4762 5.36198 44.3613 4.80859 43.0918C4.27148 41.806 4.00293 40.4388 4.00293 38.9902V13.9902H11.0098V38.9902C11.0098 39.4785 11.0993 39.9424 11.2783 40.3818C11.4574 40.805 11.7015 41.1794 12.0107 41.5049C12.3363 41.8141 12.7106 42.0583 13.1338 42.2373C13.557 42.4163 14.0127 42.5059 14.501 42.5059C14.9893 42.5059 15.445 42.4163 15.8682 42.2373C16.2913 42.0583 16.6576 41.8141 16.9668 41.5049C17.2923 41.1794 17.5446 40.805 17.7236 40.3818C17.9027 39.9424 17.9922 39.4785 17.9922 38.9902V13.9902H24.999V38.9902C24.999 39.4785 25.0885 39.9424 25.2676 40.3818C25.4466 40.805 25.6908 41.1794 26 41.5049C26.3255 41.8141 26.6999 42.0583 27.123 42.2373C27.5462 42.4163 28.002 42.5059 28.4902 42.5059C28.9785 42.5059 29.4342 42.4163 29.8574 42.2373C30.2806 42.0583 30.6468 41.8141 30.9561 41.5049C31.2816 41.1794 31.5339 40.805 31.7129 40.3818C31.9082 39.9424 32.0059 39.4785 32.0059 38.9902V13.9902H38.9883V38.9902ZM70.7617 49H46.7627V13.9902H70.7617V20.9971H53.7695V28.0039H65.2686V35.0107H53.7695V41.9932H70.7617V49ZM105.172 38.502C105.172 39.9505 104.895 41.3096 104.342 42.5791C103.788 43.8486 103.032 44.9635 102.071 45.9238C101.127 46.8678 100.021 47.6165 98.751 48.1699C97.4814 48.7233 96.1224 49 94.6738 49H77.1689V13.9902H94.6738C96.1224 13.9902 97.4814 14.2669 98.751 14.8203C100.021 15.3737 101.127 16.1305 102.071 17.0908C103.032 18.0348 103.788 19.1416 104.342 20.4111C104.895 21.6807 105.172 23.0397 105.172 24.4883C105.172 25.1393 105.082 25.8066 104.903 26.4902C104.724 27.1738 104.472 27.833 104.146 28.4678C103.821 29.1025 103.43 29.6803 102.975 30.2012C102.519 30.722 102.014 31.1533 101.461 31.4951C102.031 31.8044 102.543 32.2275 102.999 32.7646C103.455 33.2855 103.845 33.8633 104.171 34.498C104.496 35.1328 104.741 35.8001 104.903 36.5C105.082 37.1836 105.172 37.8509 105.172 38.502ZM84.1758 41.9932H94.6738C95.1621 41.9932 95.6178 41.9036 96.041 41.7246C96.4642 41.5456 96.8304 41.3014 97.1396 40.9922C97.4652 40.6667 97.7174 40.2923 97.8965 39.8691C98.0755 39.446 98.165 38.9902 98.165 38.502C98.165 38.0137 98.0755 37.5579 97.8965 37.1348C97.7174 36.7116 97.4652 36.3454 97.1396 36.0361C96.8304 35.7106 96.4642 35.4583 96.041 35.2793C95.6178 35.1003 95.1621 35.0107 94.6738 35.0107H84.1758V41.9932ZM84.1758 28.0039H94.6738C95.1621 28.0039 95.6178 27.9144 96.041 27.7354C96.4642 27.5563 96.8304 27.3122 97.1396 27.0029C97.4652 26.6774 97.7174 26.3031 97.8965 25.8799C98.0755 25.4404 98.165 24.9766 98.165 24.4883C98.165 24 98.0755 23.5443 97.8965 23.1211C97.7174 22.6979 97.4652 22.3317 97.1396 22.0225C96.8304 21.6969 96.4642 21.4447 96.041 21.2656C95.6178 21.0866 95.1621 20.9971 94.6738 20.9971H84.1758V28.0039ZM139.924 45.4111C138.296 46.8109 136.473 47.8851 134.455 48.6338C132.437 49.3825 130.345 49.7568 128.181 49.7568C126.521 49.7568 124.917 49.5371 123.371 49.0977C121.841 48.6745 120.401 48.0723 119.05 47.291C117.715 46.4935 116.494 45.5413 115.388 44.4346C114.281 43.3278 113.329 42.1071 112.531 40.7725C111.75 39.4215 111.14 37.9811 110.7 36.4512C110.277 34.9049 110.065 33.3018 110.065 31.6416C110.065 29.9814 110.277 28.3783 110.7 26.832C111.14 25.2858 111.75 23.8454 112.531 22.5107C113.329 21.1598 114.281 19.931 115.388 18.8242C116.494 17.7174 117.715 16.7734 119.05 15.9922C120.401 15.1947 121.841 14.5843 123.371 14.1611C124.917 13.7217 126.521 13.502 128.181 13.502C130.345 13.502 132.437 13.8763 134.455 14.625C136.473 15.3574 138.296 16.4316 139.924 17.8477L136.213 23.9512C135.188 22.8444 133.975 21.998 132.575 21.4121C131.175 20.8099 129.711 20.5088 128.181 20.5088C126.634 20.5088 125.186 20.8018 123.835 21.3877C122.484 21.9736 121.304 22.7712 120.295 23.7803C119.286 24.7731 118.488 25.9531 117.902 27.3203C117.316 28.6712 117.023 30.1117 117.023 31.6416C117.023 33.1715 117.316 34.612 117.902 35.9629C118.488 37.2975 119.286 38.4694 120.295 39.4785C121.304 40.4876 122.484 41.2852 123.835 41.8711C125.186 42.457 126.634 42.75 128.181 42.75C129.711 42.75 131.175 42.457 132.575 41.8711C133.975 41.2689 135.188 40.4144 136.213 39.3076L139.924 45.4111ZM152.508 20.9971V35.0107H159.515C160.475 35.0107 161.378 34.8317 162.225 34.4736C163.071 34.0993 163.812 33.5947 164.446 32.96C165.081 32.3252 165.577 31.5846 165.936 30.7383C166.31 29.8757 166.497 28.9642 166.497 28.0039C166.497 27.0436 166.31 26.1403 165.936 25.2939C165.577 24.4313 165.081 23.6826 164.446 23.0479C163.812 22.4131 163.071 21.9167 162.225 21.5586C161.378 21.1842 160.475 20.9971 159.515 20.9971H152.508ZM152.508 49H145.501V13.9902H159.515C160.8 13.9902 162.037 14.1611 163.226 14.5029C164.414 14.8285 165.521 15.3005 166.546 15.9189C167.588 16.5212 168.532 17.2536 169.378 18.1162C170.241 18.9626 170.973 19.9066 171.575 20.9482C172.194 21.9899 172.666 23.1048 172.991 24.293C173.333 25.4811 173.504 26.7181 173.504 28.0039C173.504 29.2083 173.349 30.3802 173.04 31.5195C172.747 32.6589 172.316 33.7412 171.746 34.7666C171.193 35.792 170.509 36.736 169.695 37.5986C168.882 38.4613 167.97 39.21 166.961 39.8447L170.843 49H163.396L160.345 41.9443L152.508 41.9932V49ZM200.224 35.0107V28.0039C200.224 27.0436 200.036 26.1403 199.662 25.2939C199.304 24.4313 198.808 23.6826 198.173 23.0479C197.538 22.4131 196.789 21.9167 195.927 21.5586C195.08 21.1842 194.177 20.9971 193.217 20.9971C192.257 20.9971 191.345 21.1842 190.482 21.5586C189.636 21.9167 188.896 22.4131 188.261 23.0479C187.626 23.6826 187.121 24.4313 186.747 25.2939C186.389 26.1403 186.21 27.0436 186.21 28.0039V35.0107H200.224ZM207.23 49H200.224V41.9932H186.21V49H179.228V28.0039C179.228 26.0671 179.594 24.2523 180.326 22.5596C181.059 20.8506 182.051 19.3613 183.305 18.0918C184.574 16.8223 186.055 15.8213 187.748 15.0889C189.457 14.3564 191.28 13.9902 193.217 13.9902C195.154 13.9902 196.968 14.3564 198.661 15.0889C200.37 15.8213 201.859 16.8223 203.129 18.0918C204.398 19.3613 205.399 20.8506 206.132 22.5596C206.864 24.2523 207.23 26.0671 207.23 28.0039V49ZM221.816 49H214.81V13.9902H239.321V20.9971H221.816V28.0039H232.314V35.0107H221.816V49ZM259.132 49H252.149V20.9971H241.627V13.9902H269.63V20.9971H259.132V49ZM298.787 20.84C304.067 20.84 306.907 24.32 307.427 28.6H305.827C305.227 24.52 302.467 22.16 298.667 22.16C295.307 22.16 291.707 24 291.707 27.72C291.707 31.44 293.987 32.68 299.187 34.12C304.987 35.68 307.827 37.72 307.827 42.12C307.827 46.4 303.947 49.56 298.747 49.56C293.587 49.56 289.387 46.96 288.787 41.64H290.387C290.987 45.92 294.547 48.24 298.787 48.24C302.987 48.24 306.187 45.88 306.187 42.36C306.187 38.56 303.947 37.04 298.547 35.56C292.867 34.04 290.067 32.28 290.067 27.96C290.067 23.76 294.067 20.84 298.787 20.84ZM314.964 45.72C315.124 47.8 316.044 48.4 319.044 47.96V49.16C318.404 49.24 317.564 49.28 316.804 49.28C314.724 49.28 313.644 48.36 313.484 46.32C313.404 45.44 313.404 44.72 313.404 43.52V29.28H310.804V28.08H313.404V23.6H314.924V28.08H319.004V29.28H314.924V43.6C314.924 44.64 314.924 45.16 314.964 45.72ZM338.759 27.92V49H337.239V44.48L336.279 46.68C334.639 48.64 332.439 49.56 329.959 49.56C325.679 49.56 323.119 47.16 322.639 43.36C322.519 42.28 322.479 41.56 322.479 39.84V27.92H323.999V39.44C323.999 40.72 324.039 41.68 324.159 42.76C324.559 46.04 326.439 48.24 330.159 48.24C333.879 48.24 337.239 45.6 337.239 39.6V27.92H338.759ZM361.238 19.6V49H359.718V44.52L358.478 46.92C356.758 48.84 354.798 49.56 352.118 49.56C346.438 49.56 342.878 45 342.878 38.64C342.878 31.12 347.478 27.36 352.638 27.36C355.078 27.36 356.958 28.08 358.518 29.76L359.718 32.2V19.6H361.238ZM352.278 48.28C356.278 48.28 359.718 45.96 359.718 39.24V37.2C359.718 30.68 355.878 28.64 352.638 28.64C347.918 28.64 344.558 32.52 344.558 38.44C344.558 43.76 347.238 48.28 352.278 48.28ZM367.779 22.36C368.419 22.36 368.939 22.88 368.939 23.52C368.939 24.16 368.419 24.68 367.779 24.68C367.139 24.68 366.619 24.16 366.619 23.52C366.619 22.88 367.139 22.36 367.779 22.36ZM368.539 49H367.019V27.92H368.539V49ZM382.683 27.36C388.923 27.36 392.723 31.96 392.723 38.48C392.723 44.96 388.923 49.56 382.683 49.56C376.443 49.56 372.643 44.96 372.643 38.48C372.643 31.96 376.443 27.36 382.683 27.36ZM382.683 48.28C387.163 48.28 391.083 45 391.083 38.48C391.083 31.92 387.163 28.64 382.683 28.64C378.203 28.64 374.323 31.92 374.323 38.48C374.323 45 378.203 48.28 382.683 48.28ZM402.624 27.36C407.104 27.36 409.384 30.12 409.944 33.72H408.384C407.584 30.32 405.744 28.64 402.544 28.64C399.744 28.64 397.464 30.28 397.464 33.04C397.464 35.8 399.664 36.88 402.904 37.64C407.744 38.76 410.144 40.36 410.144 43.92C410.144 47.44 407.064 49.56 402.864 49.56C398.824 49.56 395.464 47.56 394.944 42.76H396.504C397.144 46.84 399.744 48.28 402.984 48.28C406.024 48.28 408.584 46.8 408.584 44C408.584 41.32 406.944 40.12 402.264 39C398.824 38.16 395.904 36.76 395.904 33.16C395.904 29.76 398.664 27.36 402.624 27.36Z" fill="#0D0D0D"/>
</g>
<defs>
<filter id="filter0_d_175_455" x="0.00292969" y="13.502" width="414.141" height="44.2549" filterUnits="userSpaceOnUse" color-interpolation-filters="sRGB">
<feFlood flood-opacity="0" result="BackgroundImageFix"/>
<feColorMatrix in="SourceAlpha" type="matrix" values="0 0 0 0 0 0 0 0 0 0 0 0 0 0 0 0 0 0 127 0" result="hardAlpha"/>
<feOffset dy="4"/>
<feGaussianBlur stdDeviation="2"/>
<feComposite in2="hardAlpha" operator="out"/>
<feColorMatrix type="matrix" values="0 0 0 0 0 0 0 0 0 0 0 0 0 0 0 0 0 0 0.25 0"/>
<feBlend mode="normal" in2="BackgroundImageFix" result="effect1_dropShadow_175_455"/>
<feBlend mode="normal" in="SourceGraphic" in2="effect1_dropShadow_175_455" result="shape"/>
</filter>
</defs>
</svg>
